<svg xmlns="http://www.w3.org/2000/svg" id="Layer_1" data-name="Layer 1" viewBox="0 0 300 76.63" aria-labelledby="rachio-logo"
><defs/><title id="rachio-logo">Rachio Logo</title><circle cx="37.9" cy="38.73" r="37.9" fill="#fff"/><path id="SPLINE" d="M206.76 19.59l1.69-.57a33.29 33.29 0 0 1 12.2-1.66 18.29 18.29 0 0 1 8.26 2.24 15.87 15.87 0 0 1 7.44 9.68 26.56 26.56 0 0 1 1 7.67v27.5c0 .13-.1.36-.35.35h-7.62c-.7 0-.7 0-.7-.73V36.65a24.4 24.4 0 0 0-.39-4.15 7.7 7.7 0 0 0-6.02-6.5 14.36 14.36 0 0 0-3.54-.49 31.06 31.06 0 0 0-11.33 2c-.74.27-.63.18-.63.94v35.41c0 1.07.13.95-.92.95h-7c-.75 0-.75 0-.75-.77V32.22v-31c0-1-.18-1 .92-1h7.4c.21 0 .31.1.31.31v18.11z" class="cls-2"/><path id="HATCH" d="M206.76 19.59l1.69-.57a33.29 33.29 0 0 1 12.2-1.66 18.29 18.29 0 0 1 8.26 2.24 15.87 15.87 0 0 1 7.44 9.68 26.56 26.56 0 0 1 1 7.67v27.5c0 .13-.1.36-.35.35h-7.62c-.7 0-.7 0-.7-.73V36.65a24.4 24.4 0 0 0-.39-4.15 7.7 7.7 0 0 0-6.02-6.5 14.36 14.36 0 0 0-3.54-.49 31.06 31.06 0 0 0-11.33 2c-.74.27-.63.18-.63.94v35.41c0 1.07.13.95-.92.95h-7c-.75 0-.75 0-.75-.77V32.22v-31c0-1-.18-1 .92-1h7.4c.21 0 .31.1.31.31v18.11z" class="cls-2"/><path d="M122.26 26.24l.38-.09A35.26 35.26 0 0 1 134.77 25a16.3 16.3 0 0 1 4.7 1 7.82 7.82 0 0 1 4.4 4.27 15.75 15.75 0 0 1 1.13 5.12c0 .43 0 .46-.46.4a56.28 56.28 0 0 0-6.5-.47 41.22 41.22 0 0 0-10.69 1 20.55 20.55 0 0 0-8 3.66 11.68 11.68 0 0 0-4.24 6.02 14.88 14.88 0 0 0 2.29 13 11.55 11.55 0 0 0 4.31 3.78 23.38 23.38 0 0 0 5.76 2.1 33 33 0 0 0 8.88.63 26.27 26.27 0 0 0 8.14-1.66 13.05 13.05 0 0 0 4.51-2.61 14.58 14.58 0 0 0 4.71-10.62c.07-4.74 0-9.48 0-14.22a23.92 23.92 0 0 0-.75-6 16.07 16.07 0 0 0-10.62-11.68 24.25 24.25 0 0 0-7.39-1.35 40.82 40.82 0 0 0-10.27.86q-1.17.25-2.31.57s-.76.18-.76.55V26s-.08.46.65.24zM145 47.09v3.3a7.77 7.77 0 0 1-.54 2.86 6.18 6.18 0 0 1-3.11 3.26 11.77 11.77 0 0 1-4 1.12 24.34 24.34 0 0 1-7.72-.26 11.39 11.39 0 0 1-3.15-1.14 7 7 0 0 1-3.1-8.23 6.4 6.4 0 0 1 2.44-3.12 9.65 9.65 0 0 1 3-1.44 28.9 28.9 0 0 1 10.47-1.25c1.75.13 3.51.21 5.25.46.37.05.48.18.48.55-.02 1.3-.02 2.59-.02 3.89zM299.87 38.36a29.65 29.65 0 0 0-1.49-8 17.07 17.07 0 0 0-5.17-8 21.12 21.12 0 0 0-7.74-4 29.53 29.53 0 0 0-11-.77 23.06 23.06 0 0 0-8.75 2.71A16.65 16.65 0 0 0 258 29a30.32 30.32 0 0 0-2 9.18 44.32 44.32 0 0 0 .13 8 27.75 27.75 0 0 0 1.87 7.56 16.29 16.29 0 0 0 4.81 6.89 21.28 21.28 0 0 0 6.65 3.63 28.72 28.72 0 0 0 12 1.08 22.33 22.33 0 0 0 11-4.15 14.13 14.13 0 0 0 3.08-3 20.34 20.34 0 0 0 2.93-5.71 35.15 35.15 0 0 0 1.59-11c-.06-1.03-.12-2.07-.19-3.12zm-9.52 11.42l-.17.56a9.86 9.86 0 0 1-8.18 7.13 21 21 0 0 1-8.59-.11 9.69 9.69 0 0 1-7.41-6.29 21.2 21.2 0 0 1-1.15-5.13 43.42 43.42 0 0 1-.14-7.39 24.62 24.62 0 0 1 1.12-6.25 9.64 9.64 0 0 1 7.33-6.67 20 20 0 0 1 9.94.08 9.52 9.52 0 0 1 6.83 6.07 21.28 21.28 0 0 1 1.07 4.91 45 45 0 0 1 .27 4.82 31.73 31.73 0 0 1-.92 8.27z" class="cls-2"/><path id="SPLINE-2" d="M193.35 28a.92.92 0 0 1-.64-.17 28.86 28.86 0 0 0-8.6-2.53 21.55 21.55 0 0 0-9.78.67 13.34 13.34 0 0 0-2.13 1 9.3 9.3 0 0 0-4.41 5.36 22.46 22.46 0 0 0-1 4.79 42.71 42.71 0 0 0-.14 7 23.3 23.3 0 0 0 1.26 6.74 10 10 0 0 0 7.73 6.57 23.9 23.9 0 0 0 8.24.23 30.57 30.57 0 0 0 9-2.57c.11 0 .21-.13.35-.09s.07.37.07.55v6.82c0 .66 0 .67-.6.89a38.11 38.11 0 0 1-9.1 2.13 33.89 33.89 0 0 1-9-.16q-12.14-2-15.78-13.73a31.44 31.44 0 0 1-1.23-7.28 41.37 41.37 0 0 1 .33-8.62 24.29 24.29 0 0 1 2.68-8.39 18 18 0 0 1 12.12-9.05 31.34 31.34 0 0 1 9.61-.64 36.63 36.63 0 0 1 10.26 2.24c.74.28.69.11.69 1v6.67z" class="cls-2" data-name="SPLINE"/><path id="HATCH-2" d="M193.35 28a.92.92 0 0 1-.64-.17 28.86 28.86 0 0 0-8.6-2.53 21.55 21.55 0 0 0-9.78.67 13.34 13.34 0 0 0-2.13 1 9.3 9.3 0 0 0-4.41 5.36 22.46 22.46 0 0 0-1 4.79 42.71 42.71 0 0 0-.14 7 23.3 23.3 0 0 0 1.26 6.74 10 10 0 0 0 7.73 6.57 23.9 23.9 0 0 0 8.24.23 30.57 30.57 0 0 0 9-2.57c.11 0 .21-.13.35-.09s.07.37.07.55v6.82c0 .66 0 .67-.6.89a38.11 38.11 0 0 1-9.1 2.13 33.89 33.89 0 0 1-9-.16q-12.14-2-15.78-13.73a31.44 31.44 0 0 1-1.23-7.28 41.37 41.37 0 0 1 .33-8.62 24.29 24.29 0 0 1 2.68-8.39 18 18 0 0 1 12.12-9.05 31.34 31.34 0 0 1 9.61-.64 36.63 36.63 0 0 1 10.26 2.24c.74.28.69.11.69 1v6.67z" class="cls-2" data-name="HATCH"/><path id="SPLINE-3" d="M93.75 43.34V22.75c0-.87-.08-.72.71-1A64.85 64.85 0 0 1 108.2 18a49.56 49.56 0 0 1 7.73-.63c.65 0 .65 0 .66.62v6.67c0 .58 0 .59-.61.6A58 58 0 0 0 103.09 27c-.71.18-.71.18-.71.9v35.91c0 1.13.14 1-1 1H94.1c-.24 0-.36-.11-.35-.35s0-.39 0-.59V43.34z" class="cls-2" data-name="SPLINE"/><path id="HATCH-3" d="M93.75 43.34V22.75c0-.87-.08-.72.71-1A64.85 64.85 0 0 1 108.2 18a49.56 49.56 0 0 1 7.73-.63c.65 0 .65 0 .66.62v6.67c0 .58 0 .59-.61.6A58 58 0 0 0 103.09 27c-.71.18-.71.18-.71.9v35.91c0 1.13.14 1-1 1H94.1c-.24 0-.36-.11-.35-.35s0-.39 0-.59V43.34z" class="cls-2" data-name="HATCH"/><path id="SPLINE-4" d="M242.91 41.38v-22.5c0-.92-.18-.89.91-.89h7.33c.29 0 .39.13.37.41s0 .34 0 .51v45c0 1 .12.88-.92.88h-6.74c-1.12 0-1 .12-1-1q.05-11.2.05-22.41z" class="cls-2" data-name="SPLINE"/><path id="HATCH-4" d="M242.91 41.38v-22.5c0-.92-.18-.89.91-.89h7.33c.29 0 .39.13.37.41s0 .34 0 .51v45c0 1 .12.88-.92.88h-6.74c-1.12 0-1 .12-1-1q.05-11.2.05-22.41z" class="cls-2" data-name="HATCH"/><circle cx="247.13" cy="5.44" r="5.44" class="cls-2"/><path fill="#00a8e1" d="M37.9.84a37.9 37.9 0 0 0-5.82 75.35V34.32c0-1.38-1.15-1.71-2.75-2h.06a40.49 40.49 0 0 0-8.09-1h-.68V25s4.72-.44 13.09 1.82V18c4.72-2.28 13.89-2.64 13.89-2.64v5h-.54a30.49 30.49 0 0 0-5.56.64 3 3 0 0 0-2.6 2.69v15.23c10.42-2.82 16.28-2.27 16.28-2.27v7.86h-.84a51.87 51.87 0 0 0-10.89 1.4c-1.58.33-2.72 1.35-2.72 2.72v27.89A37.89 37.89 0 0 0 37.9.84z"/><path d="M298.24 17.4a1.79 1.79 0 1 1-1.75 1.79 1.77 1.77 0 0 1 1.75-1.79zm0 3.19a1.4 1.4 0 1 0-1.31-1.4 1.35 1.35 0 0 0 1.31 1.4zm-.61-2.3h.74a.54.54 0 0 1 .59.57.47.47 0 0 1-.32.46.51.51 0 0 1 .06.1l.34.65h-.46l-.3-.66H298v.66h-.42zm.65.84a.24.24 0 0 0 .26-.27.24.24 0 0 0-.25-.26H298v.53z" class="cls-2"/></svg>